<svg width="35" height="35" viewBox="0 0 35 35" fill="none" xmlns="http://www.w3.org/2000/svg">
<path d="M6.70688 12.0312L6.39115 13.3197C5.79906 13.5405 5.28863 13.937 4.92828 14.4561C4.56792 14.9752 4.37487 15.592 4.375 16.224V28.9844C4.375 29.6129 4.62467 30.2156 5.0691 30.6601C5.51352 31.1045 6.11628 31.3542 6.74479 31.3542H9.29688C9.92538 31.3542 10.5281 31.1045 10.9726 30.6601C11.417 30.2156 11.6667 29.6129 11.6667 28.9844V26.6146H23.3333V28.9844C23.3333 29.6129 23.583 30.2156 24.0274 30.6601C24.4719 31.1045 25.0746 31.3542 25.7031 31.3542H28.2552C28.8837 31.3542 29.4865 31.1045 29.9309 30.6601C30.3753 30.2156 30.625 29.6129 30.625 28.9844V16.224C30.625 14.8823 29.7719 13.739 28.5782 13.308L28.2136 12.0312H29.7135C29.9553 12.0312 30.1871 11.9352 30.358 11.7643C30.529 11.5934 30.625 11.3615 30.625 11.1198C30.625 10.8781 30.529 10.6462 30.358 10.4753C30.1871 10.3044 29.9553 10.2083 29.7135 10.2083H27.693L26.9704 7.68031C26.6983 6.72801 26.1234 5.89027 25.3327 5.29388C24.542 4.69749 23.5785 4.37493 22.5881 4.375H12.1581C11.1381 4.37509 10.1477 4.71735 9.34521 5.34701C8.54277 5.97667 7.97476 6.85732 7.73208 7.84802L7.15313 10.2083H5.28646C5.04472 10.2083 4.81289 10.3044 4.64196 10.4753C4.47103 10.6462 4.375 10.8781 4.375 11.1198C4.375 11.3615 4.47103 11.5934 4.64196 11.7643C4.81289 11.9352 5.04472 12.0312 5.28646 12.0312H6.70688ZM12.1574 6.19792H22.5896C23.1837 6.19804 23.7617 6.39167 24.2359 6.74952C24.7102 7.10737 25.055 7.60996 25.2182 8.18125L26.6299 13.125H8.31542L9.50177 8.28187C9.64735 7.68743 9.98814 7.159 10.4696 6.78118C10.9511 6.40335 11.5454 6.19798 12.1574 6.19792ZM25.1562 26.6146H28.8021V28.9844C28.8021 29.1294 28.7445 29.2685 28.6419 29.3711C28.5393 29.4736 28.4002 29.5312 28.2552 29.5312H25.7031C25.5581 29.5312 25.419 29.4736 25.3164 29.3711C25.2139 29.2685 25.1562 29.1294 25.1562 28.9844V26.6146ZM6.19792 28.9844V26.6146H9.84375V28.9844C9.84375 29.1294 9.78613 29.2685 9.68357 29.3711C9.58102 29.4736 9.44192 29.5312 9.29688 29.5312H6.74479C6.59975 29.5312 6.46065 29.4736 6.35809 29.3711C6.25553 29.2685 6.19792 29.1294 6.19792 28.9844ZM10.2083 20.4167C9.82156 20.4167 9.45063 20.263 9.17714 19.9895C8.90365 19.716 8.75 19.3451 8.75 18.9583C8.75 18.5716 8.90365 18.2006 9.17714 17.9271C9.45063 17.6536 9.82156 17.5 10.2083 17.5C10.5951 17.5 10.966 17.6536 11.2395 17.9271C11.513 18.2006 11.6667 18.5716 11.6667 18.9583C11.6667 19.3451 11.513 19.716 11.2395 19.9895C10.966 20.263 10.5951 20.4167 10.2083 20.4167ZM26.25 18.9583C26.25 19.3451 26.0964 19.716 25.8229 19.9895C25.5494 20.263 25.1784 20.4167 24.7917 20.4167C24.4049 20.4167 24.034 20.263 23.7605 19.9895C23.487 19.716 23.3333 19.3451 23.3333 18.9583C23.3333 18.5716 23.487 18.2006 23.7605 17.9271C24.034 17.6536 24.4049 17.5 24.7917 17.5C25.1784 17.5 25.5494 17.6536 25.8229 17.9271C26.0964 18.2006 26.25 18.5716 26.25 18.9583ZM14.7656 20.4167H20.2344C20.4761 20.4167 20.7079 20.5127 20.8789 20.6836C21.0498 20.8546 21.1458 21.0864 21.1458 21.3281C21.1458 21.5699 21.0498 21.8017 20.8789 21.9726C20.7079 22.1436 20.4761 22.2396 20.2344 22.2396H14.7656C14.5239 22.2396 14.2921 22.1436 14.1211 21.9726C13.9502 21.8017 13.8542 21.5699 13.8542 21.3281C13.8542 21.0864 13.9502 20.8546 14.1211 20.6836C14.2921 20.5127 14.5239 20.4167 14.7656 20.4167Z" fill="white"/>
</svg>
