<svg width="20" height="20" viewBox="0 0 20 20" fill="none" xmlns="http://www.w3.org/2000/svg">
<path d="M10 10.8333C9.74629 10.8304 9.49776 10.9052 9.28787 11.0478C9.07797 11.1903 8.91679 11.3937 8.82601 11.6307C8.73523 11.8676 8.71922 12.1267 8.78012 12.373C8.84103 12.6193 8.97593 12.841 9.16667 13.0083V14.1667C9.16667 14.3877 9.25446 14.5996 9.41074 14.7559C9.56702 14.9122 9.77899 15 10 15C10.221 15 10.433 14.9122 10.5893 14.7559C10.7455 14.5996 10.8333 14.3877 10.8333 14.1667V13.0083C11.0241 12.841 11.159 12.6193 11.2199 12.373C11.2808 12.1267 11.2648 11.8676 11.174 11.6307C11.0832 11.3937 10.922 11.1903 10.7121 11.0478C10.5022 10.9052 10.2537 10.8304 10 10.8333ZM14.1667 7.5V5.83334C14.1667 4.72827 13.7277 3.66846 12.9463 2.88706C12.1649 2.10566 11.1051 1.66667 10 1.66667C8.89493 1.66667 7.83512 2.10566 7.05372 2.88706C6.27232 3.66846 5.83333 4.72827 5.83333 5.83334V7.5C5.17029 7.5 4.53441 7.7634 4.06557 8.23224C3.59672 8.70108 3.33333 9.33696 3.33333 10V15.8333C3.33333 16.4964 3.59672 17.1323 4.06557 17.6011C4.53441 18.0699 5.17029 18.3333 5.83333 18.3333H14.1667C14.8297 18.3333 15.4656 18.0699 15.9344 17.6011C16.4033 17.1323 16.6667 16.4964 16.6667 15.8333V10C16.6667 9.33696 16.4033 8.70108 15.9344 8.23224C15.4656 7.7634 14.8297 7.5 14.1667 7.5ZM7.5 5.83334C7.5 5.1703 7.76339 4.53441 8.23223 4.06557C8.70107 3.59673 9.33696 3.33334 10 3.33334C10.663 3.33334 11.2989 3.59673 11.7678 4.06557C12.2366 4.53441 12.5 5.1703 12.5 5.83334V7.5H7.5V5.83334ZM15 15.8333C15 16.0544 14.9122 16.2663 14.7559 16.4226C14.5996 16.5789 14.3877 16.6667 14.1667 16.6667H5.83333C5.61232 16.6667 5.40036 16.5789 5.24408 16.4226C5.0878 16.2663 5 16.0544 5 15.8333V10C5 9.77899 5.0878 9.56703 5.24408 9.41075C5.40036 9.25447 5.61232 9.16667 5.83333 9.16667H14.1667C14.3877 9.16667 14.5996 9.25447 14.7559 9.41075C14.9122 9.56703 15 9.77899 15 10V15.8333Z" fill="white"/>
</svg>
