<svg width="50" height="50" viewBox="0 0 50 50" fill="none" xmlns="http://www.w3.org/2000/svg">
<path d="M31.25 1.5625C31.25 1.1481 31.4146 0.750671 31.7076 0.457646C32.0007 0.16462 32.3981 0 32.8125 0L45.3125 0C45.7269 0 46.1243 0.16462 46.4174 0.457646C46.7104 0.750671 46.875 1.1481 46.875 1.5625V17.1875C46.875 17.6019 46.7104 17.9993 46.4174 18.2924C46.1243 18.5854 45.7269 18.75 45.3125 18.75H40.625V45.3125C40.625 45.7269 40.4604 46.1243 40.1674 46.4174C39.8743 46.7104 39.4769 46.875 39.0625 46.875C38.6481 46.875 38.2507 46.7104 37.9576 46.4174C37.6646 46.1243 37.5 45.7269 37.5 45.3125V18.75H32.8125C32.3981 18.75 32.0007 18.5854 31.7076 18.2924C31.4146 17.9993 31.25 17.6019 31.25 17.1875V1.5625ZM16.6219 6.25H28.125V9.375H16.6219C15.8622 9.37483 15.1285 9.65136 14.558 10.1529C13.9874 10.6544 13.6191 11.3466 13.5219 12.1L12.6625 18.75H28.3906C28.7139 19.6643 29.3128 20.4558 30.1047 21.0155C30.8967 21.5752 31.8427 21.8755 32.8125 21.875H34.375V25.9187C34.0218 25.7924 33.6433 25.7528 33.2716 25.8035C32.8999 25.8542 32.5458 25.9937 32.2393 26.21C31.9329 26.4264 31.683 26.7134 31.5108 27.0467C31.3386 27.38 31.2491 27.7498 31.25 28.125C31.2506 28.4997 31.3409 28.8687 31.5135 29.2013C31.6861 29.5338 31.9359 29.8201 32.242 30.0362C32.5481 30.2523 32.9015 30.3918 33.2726 30.4432C33.6437 30.4945 34.0218 30.4561 34.375 30.3313V37.5H10.9375C9.6943 37.5 8.50201 37.0061 7.62294 36.1271C6.74386 35.248 6.25 34.0557 6.25 32.8125V23.4375C6.24985 22.4489 6.56229 21.4855 7.14264 20.6851C7.72299 19.8848 8.54154 19.2884 9.48125 18.9812L9.5125 18.75H7.8125C7.3981 18.75 7.00067 18.5854 6.70765 18.2924C6.41462 17.9993 6.25 17.6019 6.25 17.1875C6.25 16.7731 6.41462 16.3757 6.70765 16.0826C7.00067 15.7896 7.3981 15.625 7.8125 15.625H9.91563L10.4219 11.7C10.6164 10.1927 11.3535 8.80789 12.4953 7.80476C13.637 6.80163 15.1052 6.2489 16.625 6.25M16.4062 30.4656C16.7136 30.4656 17.018 30.4051 17.302 30.2875C17.5859 30.1698 17.844 29.9974 18.0613 29.7801C18.2787 29.5627 18.4511 29.3047 18.5687 29.0207C18.6863 28.7367 18.7469 28.4324 18.7469 28.125C18.7469 27.8176 18.6863 27.5133 18.5687 27.2293C18.4511 26.9453 18.2787 26.6873 18.0613 26.4699C17.844 26.2526 17.5859 26.0802 17.302 25.9625C17.018 25.8449 16.7136 25.7844 16.4062 25.7844C15.7855 25.7844 15.1901 26.031 14.7512 26.4699C14.3122 26.9089 14.0656 27.5042 14.0656 28.125C14.0656 28.7458 14.3122 29.3411 14.7512 29.7801C15.1901 30.219 15.7855 30.4656 16.4062 30.4656ZM15.625 40.625H10.9375V41.4062C10.9375 42.0279 11.1844 42.624 11.624 43.0635C12.0635 43.5031 12.6596 43.75 13.2812 43.75C13.9029 43.75 14.499 43.5031 14.9385 43.0635C15.3781 42.624 15.625 42.0279 15.625 41.4062V40.625Z" fill="#2F2B3D"/>
</svg>
