<svg width="50" height="50" viewBox="0 0 50 50" fill="none" xmlns="http://www.w3.org/2000/svg">
<path d="M47.9167 25C47.9167 31.9688 44.8062 38.2125 39.8958 42.4167C35.7484 45.9731 30.4634 47.9245 25 47.9167C19.3125 47.9167 14.1104 45.8458 10.1042 42.4167C7.58655 40.2669 5.56555 37.5963 4.18075 34.5893C2.79594 31.5823 2.08033 28.3106 2.08332 25C2.08332 12.3438 12.3437 2.08334 25 2.08334C37.6562 2.08334 47.9167 12.3438 47.9167 25ZM33.3333 17.7083C33.3333 15.4982 32.4553 13.3786 30.8925 11.8158C29.3297 10.253 27.2101 9.37501 25 9.37501C22.7899 9.37501 20.6702 10.253 19.1074 11.8158C17.5446 13.3786 16.6667 15.4982 16.6667 17.7083C16.6667 19.9185 17.5446 22.0381 19.1074 23.6009C20.6702 25.1637 22.7899 26.0417 25 26.0417C27.2101 26.0417 29.3297 25.1637 30.8925 23.6009C32.4553 22.0381 33.3333 19.9185 33.3333 17.7083ZM38.5417 37.9688V37.5C38.5417 35.2899 37.6637 33.1703 36.1009 31.6075C34.5381 30.0447 32.4185 29.1667 30.2083 29.1667H19.7917C17.5815 29.1667 15.4619 30.0447 13.8991 31.6075C12.3363 33.1703 11.4583 35.2899 11.4583 37.5V37.9688C11.8889 38.4174 12.3403 38.8445 12.8125 39.25C16.2051 42.1609 20.5297 43.7577 25 43.75C27.5312 43.7549 30.037 43.2448 32.3649 42.251C34.6929 41.2571 36.7944 39.8002 38.5417 37.9688Z" fill="#7692FF"/>
</svg>
